#!OML:ASF F:\VICON\USERDATA\INSTALL\rory7\rory7.ASF
:FULLY-SPECIFIED
:DEGREES
501
root 0.354519 18.817 2.60111 -4.78409 -5.42331 1.19611
lowerback 4.59576 1.23985 -2.06308
upperback 0.568104 1.51345 -1.57083
thorax -2.00291 0.76517 -0.551305
lowerneck -7.45714 -4.06423 -6.88661
upperneck 8.38232 -5.60704 9.17581
head 4.17708 -2.52885 3.60508
rclavicle -1.2424e-016 -7.95139e-015
rhumerus 30.3696 11.9285 -58.077
rradius 125.496
rwrist 1.8489
rhand -36.5856 10.5108
rfingers 7.12502
rthumb -9.6748 -19.2471
lclavicle -1.2424e-016 -7.95139e-015
lhumerus -24.6961 -1.30718 83.0084
lradius 23.5699
lwrist -11.3239
lhand -25.1639 28.4886
lfingers 7.12502
lthumb 1.35328 58.4641
rfemur 8.73916 19.7133 18.5356
rtibia 9.11798
rfoot -11.997 -23.1404
rtoes -6.63128
lfemur 8.11592 -8.71067 -19.0523
ltibia 8.99642
lfoot -11.4335 18.0029
ltoes -4.83342
502
root 0.354913 18.8176 2.60213 -4.7726 -5.41025 1.13043
lowerback 4.58565 1.22237 -2.00121
upperback 0.5702 1.49389 -1.5616
thorax -1.99363 0.75494 -0.574913
lowerneck -7.39168 -4.0668 -6.79236
upperneck 8.10275 -5.60033 9.12586
head 4.07702 -2.53006 3.57598
rclavicle -2.36057e-015 -8.34896e-015
rhumerus 30.582 11.7374 -58.0242
rradius 125.498
rwrist 1.92349
rhand -36.2536 9.95514
rfingers 7.12502
rthumb -9.35447 -19.8173
lclavicle -2.36057e-015 -8.34896e-015
lhumerus -24.7856 -0.837183 82.7362
lradius 23.3832
lwrist -12.1557
lhand -24.0733 30.4162
lfingers 7.12502
lthumb 2.40652 60.3824
rfemur 8.73071 19.6935 18.6054
rtibia 9.13233
rfoot -11.9909 -23.1615
rtoes -6.6096
lfemur 8.12164 -8.72928 -18.9852
ltibia 8.96752
lfoot -11.3722 18.0268
ltoes -4.85688
503
root 0.356075 18.8181 2.60204 -4.74564 -5.39003 1.18794
lowerback 4.57189 1.20037 -2.05828
upperback 0.559052 1.46127 -1.58924
thorax -1.99793 0.739065 -0.569161
lowerneck -7.24379 -4.0118 -6.78488
upperneck 7.76179 -5.51742 9.1885
head 3.94415 -2.49386 3.60279
rclavicle -1.81888e-014 2.22639e-014
rhumerus 30.8052 11.5429 -57.9801
rradius 125.539
rwrist 1.87998
rhand -35.8752 9.81882
rfingers 7.12502
rthumb -8.98941 -19.9697
lclavicle -1.81888e-014 2.22639e-014
lhumerus -24.8569 -0.409257 82.4936
lradius 23.0891
lwrist -12.5102
lhand -23.8603 30.0735
lfingers 7.12502
lthumb 2.61225 60.0373
rfemur 8.69683 19.679 18.5207
rtibia 9.16692
rfoot -12.0556 -23.148
rtoes -6.49108
lfemur 8.11036 -8.74225 -19.0549
ltibia 8.91381
lfoot -11.288 18.0423
ltoes -4.86173
504
root 0.357494 18.8181 2.60296 -4.72591 -5.3768 1.29107
lowerback 4.58795 1.19108 -2.15349
upperback 0.528557 1.44187 -1.6294
thorax -2.0395 0.730306 -0.556779
lowerneck -7.27002 -3.98114 -6.82736
upperneck 7.62429 -5.46661 9.25098
head 3.90584 -2.46808 3.63232
rclavicle 5.8393e-015 1.59028e-015
rhumerus 30.9984 11.3655 -57.9079
rradius 125.533
rwrist 1.86097
rhand -35.8599 10.0282
rfingers 7.12502
rthumb -8.97465 -19.7609
lclavicle 5.8393e-015 1.59028e-015
lhumerus -24.9981 -0.0783638 82.2889
lradius 22.8359
lwrist -12.794
lhand -24.493 28.1986
lfingers 7.12502
lthumb 2.00124 58.169
rfemur 8.63061 19.6761 18.3854
rtibia 9.23907
rfoot -12.0699 -23.1415
rtoes -6.58562
lfemur 8.13734 -8.74458 -19.1703
ltibia 8.82289
lfoot -11.2857 18.0104
ltoes -4.68424
505
root 0.358812 18.818 2.60424 -4.7285 -5.35104 1.34567
lowerback 4.63126 1.18708 -2.19641
upperback 0.484773 1.43119 -1.65169
thorax -2.10921 0.725801 -0.556683
lowerneck -7.33672 -4.01243 -6.91168
upperneck 7.59572 -5.5011 9.32092
head 3.91556 -2.48287 3.6645
rclavicle 2.97183e-014 3.57812e-015
rhumerus 31.1184 11.2212 -57.8542
rradius 125.497
rwrist 1.94815
rhand -36.0217 10.162
rfingers 7.12502
rthumb -9.13071 -19.6204
lclavicle 2.97183e-014 3.57812e-015
lhumerus -25.2381 0.0288135 82.1688
lradius 22.6378
lwrist -12.7653
lhand -25.2983 26.9014
lfingers 7.12502
lthumb 1.22348 56.8776
rfemur 8.56788 19.6563 18.316
rtibia 9.33453
rfoot -12.0806 -23.1667
rtoes -6.75177
lfemur 8.20063 -8.76504 -19.2322
ltibia 8.71745
lfoot -11.3462 17.9702
ltoes -4.30185
506
root 0.360186 18.8179 2.60429 -4.71979 -5.30583 1.36455
lowerback 4.63258 1.17233 -2.20986
upperback 0.472156 1.41041 -1.65525
thorax -2.12301 0.71567 -0.551703
lowerneck -7.2785 -4.07086 -6.90362
upperneck 7.3319 -5.5619 9.27884
head 3.83004 -2.51924 3.6475
rclavicle -1.62506e-014 3.81667e-014
rhumerus 31.2627 11.0361 -57.7998
rradius 125.484
rwrist 1.96523
rhand -36.0452 10.2666
rfingers 7.12502
rthumb -9.15345 -19.5148
lclavicle -1.62506e-014 3.81667e-014
lhumerus -25.423 0.137228 82.04
lradius 22.4255
lwrist -12.7349
lhand -25.683 26.2492
lfingers 7.12502
lthumb 0.851943 56.2272
rfemur 8.54259 19.6129 18.2851
rtibia 9.37648
rfoot -12.1268 -23.1732
rtoes -6.68687
lfemur 8.20036 -8.8078 -19.2582
ltibia 8.67926
lfoot -11.3545 17.9897
ltoes -4.22733
507
root 0.361372 18.8174 2.60408 -4.71428 -5.28594 1.37234
lowerback 4.63818 1.15109 -2.22101
upperback 0.470958 1.38151 -1.64606
thorax -2.12766 0.701421 -0.534296
lowerneck -7.20933 -4.10014 -6.8119
upperneck 6.98621 -5.57888 9.14506
head 3.70948 -2.53699 3.59196
rclavicle -7.34261e-015 2.38542e-015
rhumerus 31.4996 10.864 -57.6705
rradius 125.488
rwrist 1.94382
rhand -36.0534 10.3612
rfingers 7.12502
rthumb -9.16129 -19.4198
lclavicle -7.34261e-015 2.38542e-015
lhumerus -25.5974 0.467022 81.8313
lradius 22.2049
lwrist -13.0141
lhand -25.5554 26.359
lfingers 7.12502
lthumb 0.975173 56.3365
rfemur 8.56492 19.5938 18.2699
rtibia 9.34402
rfoot -12.1233 -23.1662
rtoes -6.69809
lfemur 8.16137 -8.82601 -19.2741
ltibia 8.73034
lfoot -11.333 18.0191
ltoes -4.41512
508
root 0.361609 18.8175 2.60338 -4.70254 -5.30887 1.31392
lowerback 4.67212 1.14068 -2.15852
upperback 0.435642 1.36916 -1.63006
thorax -2.18182 0.695242 -0.553294
lowerneck -7.1635 -4.07371 -6.80851
upperneck 6.75387 -5.53233 9.168
head 3.6288 -2.5168 3.60293
rclavicle 1.10077e-014 2.06736e-014
rhumerus 31.6958 10.7369 -57.5661
rradius 125.471
rwrist 2.01812
rhand -36.1292 10.5023
rfingers 7.12502
rthumb -9.23449 -19.2755
lclavicle 1.10077e-014 2.06736e-014
lhumerus -25.8317 0.916958 81.569
lradius 21.9949
lwrist -13.3668
lhand -25.587 26.4002
lfingers 7.12502
lthumb 0.944588 56.3779
rfemur 8.56472 19.6106 18.3343
rtibia 9.28855
rfoot -12.0425 -23.1697
rtoes -6.83071
lfemur 8.11481 -8.80846 -19.2081
ltibia 8.81558
lfoot -11.3717 17.9945
ltoes -4.4121
509
root 0.361232 18.8174 2.60411 -4.70062 -5.3605 1.20621
lowerback 4.69967 1.14991 -2.04533
upperback 0.412311 1.38653 -1.60196
thorax -2.21934 0.7033 -0.589865
lowerneck -7.0931 -4.04421 -6.84679
upperneck 6.51162 -5.48174 9.2348
head 3.54321 -2.49453 3.63494
rclavicle 1.43125e-014 1.98785e-015
rhumerus 31.7667 10.5795 -57.5249
rradius 125.392
rwrist 2.10762
rhand -36.3033 10.9565
rfingers 7.12502
rthumb -9.40243 -18.8137
lclavicle 1.43125e-014 1.98785e-015
lhumerus -26.0654 1.23841 81.3362
lradius 21.8439
lwrist -13.5298
lhand -25.6077 26.3082
lfingers 7.12502
lthumb 0.924639 56.2859
rfemur 8.5883 19.6508 18.4662
rtibia 9.23833
rfoot -12.0044 -23.1697
rtoes -6.77236
lfemur 8.09526 -8.76742 -19.0853
ltibia 8.89366
lfoot -11.444 17.9608
ltoes -4.32752
510
root 0.362893 18.8171 2.6078 -4.69766 -5.3776 1.19973
lowerback 4.67554 1.15464 -2.01949
upperback 0.415858 1.3953 -1.59277
thorax -2.20183 0.707386 -0.594862
lowerneck -7.09455 -4.07622 -6.82196
upperneck 6.29516 -5.50577 9.15358
head 3.47745 -2.51168 3.60498
rclavicle 1.79652e-014 -7.55382e-015
rhumerus 31.8801 10.3895 -57.4626
rradius 125.321
rwrist 2.11744
rhand -36.5144 11.5913
rfingers 7.12502
rthumb -9.60616 -18.1697
lclavicle 1.79652e-014 -7.55382e-015
lhumerus -26.2691 1.38144 81.2105
lradius 21.6074
lwrist -13.0671
lhand -25.8332 26.1321
lfingers 7.12502
lthumb 0.706806 56.1107
rfemur 8.63845 19.6678 18.4673
rtibia 9.17258
rfoot -12.0058 -23.1754
rtoes -6.74266
lfemur 8.06603 -8.74972 -19.0872
ltibia 8.96207
lfoot -11.4551 17.9734
ltoes -4.45478
511
root 0.366102 18.8185 2.60995 -4.64048 -5.34168 1.24823
lowerback 4.62938 1.14294 -2.02443
upperback 0.383102 1.37972 -1.61334
thorax -2.20921 0.699747 -0.611654
lowerneck -7.1663 -4.14268 -6.745
upperneck 6.17616 -5.58103 9.02832
head 3.45398 -2.5518 3.5483
rclavicle 2.18166e-014 -1.35174e-014
rhumerus 32.0199 10.2118 -57.4069
rradius 125.283
rwrist 2.11997
rhand -36.4993 11.8267
rfingers 7.12502
rthumb -9.59158 -17.935
lclavicle 2.18166e-014 -1.35174e-014
lhumerus -26.4926 1.50834 81.1198
lradius 21.2179
lwrist -12.26
lhand -26.0773 26.2063
lfingers 7.12502
lthumb 0.471093 56.1856
rfemur 8.60778 19.6371 18.3707
rtibia 9.09681
rfoot -11.9376 -23.201
rtoes -6.89497
lfemur 7.97092 -8.77842 -19.1477
ltibia 9.00678
lfoot -11.44 17.9956
ltoes -4.49728
512
root 0.367758 18.8198 2.61115 -4.61555 -5.35763 1.23116
lowerback 4.64915 1.15044 -1.97636
upperback 0.331379 1.39008 -1.62338
thorax -2.27215 0.7049 -0.650797
lowerneck -7.13381 -4.18474 -6.69154
upperneck 6.00532 -5.63156 9.00198
head 3.3992 -2.57939 3.52958
rclavicle -1.27098e-014 1.19271e-014
rhumerus 32.1262 10.0743 -57.2714
rradius 125.276
rwrist 2.08208
rhand -36.3845 11.4611
rfingers 7.12502
rthumb -9.48078 -18.3056
lclavicle -1.27098e-014 1.19271e-014
lhumerus -26.7732 1.86449 80.8958
lradius 20.9069
lwrist -12.18
lhand -25.9862 26.5323
lfingers 7.12502
lthumb 0.559075 56.5113
rfemur 8.60254 19.6516 18.3737
rtibia 9.02902
rfoot -11.8655 -23.208
rtoes -6.96214
lfemur 7.94684 -8.76291 -19.1314
ltibia 9.02317
lfoot -11.5148 17.9809
ltoes -4.21634
513
root 0.369307 18.8197 2.61331 -4.64314 -5.4133 1.21977
lowerback 4.68279 1.17764 -1.94163
upperback 0.307181 1.42648 -1.62282
thorax -2.31519 0.722982 -0.67323
lowerneck -7.03578 -4.20696 -6.72558
upperneck 5.80423 -5.65488 9.0618
head 3.32737 -2.59406 3.5547
rclavicle -1.29955e-014 2.54444e-014
rhumerus 32.2561 9.94008 -57.0891
rradius 125.287
rwrist 1.98431
rhand -36.3345 10.993
rfingers 7.12502
rthumb -9.43255 -18.7759
lclavicle -1.29955e-014 2.54444e-014
lhumerus -27.0535 2.37206 80.5866
lradius 20.6635
lwrist -12.58
lhand -26.5965 25.5835
lfingers 7.12502
lthumb -0.0303302 55.5633
rfemur 8.68218 19.7074 18.3945
rtibia 8.95066
rfoot -11.8697 -23.1838
rtoes -6.82722
lfemur 7.98172 -8.70704 -19.1354
ltibia 9.04792
lfoot -11.5689 17.9709
ltoes -4.15409
